<?xml version="1.0" encoding="utf-8"?>
<!-- Generator: Adobe Illustrator 24.1.1, SVG Export Plug-In . SVG Version: 6.00 Build 0)  -->
<svg version="1.1" id="Layer_1" xmlns="http://www.w3.org/2000/svg" xmlns:xlink="http://www.w3.org/1999/xlink" x="0px" y="0px"
	 viewBox="0 0 200 200" style="enable-background:new 0 0 200 200;" xml:space="preserve">
<style type="text/css">
	.st0{fill:#1B1B1B;}
	.st1{fill:none;stroke:#FFFFFF;stroke-width:0.5;stroke-miterlimit:10;}
	.st2{fill:none;}
	.st3{fill:#FFFFFF;}
	.st4{fill:none;stroke:#FFFFFF;stroke-miterlimit:10;}
</style>
<path class="st0" d="M24,135.2l127.6,33.4c12.4,3.2,25.2-4.2,28.5-16.5l16.5-62.2c3.3-12.3-4.2-25.1-16.6-28.3L52.4,28.1
	C40,24.9,27.2,32.3,24,44.6L7.4,106.9C4.1,119.2,11.6,132,24,135.2z"/>
<g>
	<g>
		<ellipse transform="matrix(0.283 -0.9591 0.9591 0.283 -32.429 107.1705)" class="st1" cx="55.5" cy="75.3" rx="9" ry="6.6"/>
		<g>
			<path class="st2" d="M50.2,83.7c-0.9-0.8-1.6-1.9-2.1-3.2c-0.8-2.2-0.9-4.9-0.1-7.4c0.8-2.5,2.2-4.7,4.2-6.1
				c2-1.5,4.2-1.9,6.3-1.3c2,0.6,3.6,2.2,4.5,4.6c0.8,2.2,0.9,4.9,0.1,7.4c-1.6,5.4-6.3,8.7-10.4,7.4C51.7,84.7,50.9,84.3,50.2,83.7
				z M57.7,67.8c-2.8-0.9-6.2,1.8-7.4,5.9c-0.6,2-0.6,4.1,0,5.8c0.6,1.6,1.6,2.8,2.9,3.2c1.3,0.4,2.8,0,4.2-1
				c1.5-1.1,2.6-2.8,3.2-4.9C61.9,72.7,60.5,68.7,57.7,67.8L57.7,67.8z"/>
		</g>
	</g>
	<g>
		<g>
			<path class="st3" d="M84.9,91.8l-10-10.7l0.6-1.8l14.2-3.4l-0.7,2.3l-12.2,3l0.3-0.9l8.5,9.2L84.9,91.8z"/>
		</g>
	</g>
	<g>
		<g>
			<path class="st3" d="M59.4,111.9c-3.6-1.1-6.6-2.8-8.9-5.2c-2.3-2.3-3.9-5.1-4.6-8.2c-0.7-3.1-0.6-6.3,0.4-9.7l1-3.4l6.6,2
				l-1,3.3c-0.7,2.3-0.8,4.4-0.3,6.5c0.5,2.1,1.4,3.8,2.9,5.3c1.5,1.5,3.3,2.6,5.7,3.3c2.3,0.7,4.5,0.8,6.5,0.4
				c2-0.4,3.8-1.4,5.4-2.8c1.5-1.4,2.6-3.3,3.3-5.6l1-3.3l6.6,2l-1,3.4c-1,3.4-2.7,6.1-5,8.3c-2.3,2.2-5.1,3.6-8.3,4.3
				C66.4,113.3,63,113,59.4,111.9z"/>
		</g>
	</g>
	<path class="st3" d="M59.3,68.8c-2.5-0.8-5.5,1.7-6.7,5.6c-1.2,3.9,0,7.6,2.5,8.4c2.5,0.8,5.5-1.7,6.7-5.6
		C63,73.3,61.8,69.6,59.3,68.8z M55.8,77.1l1-3.2l3.6,1.1l-1,3.2L55.8,77.1z"/>
	<ellipse transform="matrix(0.1799 -0.9837 0.9837 0.1799 -31.7315 136.0179)" class="st4" cx="65.7" cy="87" rx="34.2" ry="33.7"/>
</g>
<g>
	<path class="st3" d="M102.3,110.2l3.9-16.1l2.6,0.6l5.8,13.5l-1.5,0l2.9-11.7l3.3,0.8l-3.9,16.1l-2.6-0.6l-5.7-13.5l1.3,0
		l-2.9,11.8L102.3,110.2z"/>
	<path class="st3" d="M124.6,115.9c-1.3-0.3-2.3-0.9-3.2-1.6c-0.9-0.8-1.5-1.7-1.8-2.8c-0.3-1.1-0.4-2.2-0.1-3.4L122,98l3.3,0.8
		l-2.4,10c-0.2,0.6-0.2,1.2,0,1.8c0.2,0.6,0.4,1.1,0.9,1.5c0.4,0.4,0.9,0.7,1.6,0.8c0.6,0.2,1.2,0.1,1.8,0c0.5-0.2,1-0.5,1.4-0.9
		c0.4-0.4,0.7-1,0.8-1.6l2.5-10l3.3,0.8l-2.5,10.2c-0.3,1.2-0.8,2.2-1.6,3c-0.8,0.8-1.8,1.3-2.9,1.6
		C127,116.3,125.8,116.3,124.6,115.9z"/>
	<path class="st3" d="M133.9,118l3.9-16.1l2.6,0.6l5.8,13.5l-1.5,0l2.9-11.7l3.3,0.8l-3.9,16.1l-2.6-0.6l-5.7-13.5l1.3,0l-2.9,11.8
		L133.9,118z"/>
	<path class="st3" d="M156.2,123.7c-1.3-0.3-2.3-0.8-3.2-1.6c-0.9-0.8-1.5-1.7-1.8-2.8c-0.3-1.1-0.4-2.2-0.1-3.4l2.5-10.2l3.3,0.8
		l-2.4,10c-0.2,0.6-0.2,1.2,0,1.8c0.2,0.6,0.4,1.1,0.9,1.5c0.4,0.4,0.9,0.7,1.6,0.8c0.6,0.2,1.2,0.2,1.8,0c0.6-0.2,1-0.5,1.4-0.9
		c0.4-0.4,0.7-1,0.8-1.6l2.4-10l3.3,0.8l-2.5,10.2c-0.3,1.2-0.8,2.2-1.6,2.9c-0.8,0.8-1.8,1.3-2.9,1.6
		C158.6,124,157.4,124,156.2,123.7z"/>
	<path class="st3" d="M166.7,126l0.8-3.2l3.2,0.8l-0.8,3.2L166.7,126z M168.2,121.1l2.5-11.1l3.2,0.8l-2.9,11L168.2,121.1z"/>
</g>
<g>
	<path class="st3" d="M158.9,162.6c-3.4,0.7-7.1,0.7-10.7-0.3L30,131.4c-6-1.6-10.9-5.3-14-10.6c-2.9-4.9-3.7-10.6-2.2-16l14.7-55.3
		C31.6,38,43.8,31.2,55.8,34.4l118.1,30.9c6,1.6,10.9,5.3,14,10.6c2.9,4.9,3.7,10.6,2.2,16l-14.7,55.3
		C173.3,155.2,166.7,160.9,158.9,162.6z M45.5,36c-7.2,1.5-13.2,6.7-15.1,14l-14.7,55.3c-1.3,4.9-0.6,10.1,2,14.5
		c2.8,4.8,7.3,8.2,12.8,9.7l118.1,30.9c11,2.9,22.2-3.3,25-13.8l14.7-55.3c1.3-4.9,0.6-10.1-2-14.5c-2.8-4.8-7.3-8.2-12.8-9.7
		L55.3,36.2C52,35.4,48.6,35.3,45.5,36z"/>
</g>
</svg>
